<svg xmlns="http://www.w3.org/2000/svg" width="5600" height="3600" viewBox="0 0 5600 3600" role="img" aria-labelledby="title desc">
<title id="title">Talent Pilot Core ERD - Expanded Flow View</title>
<desc id="desc">Expanded table relationships grouped by tenant, identity, workforce, job request, publishing, and candidate pipeline</desc>
<defs>
  <marker id="arrow" markerWidth="12" markerHeight="12" refX="10" refY="4" orient="auto" markerUnits="strokeWidth">
    <path d="M0,0 L0,8 L10,4 z" fill="#536273" />
  </marker>
  <style>
    svg { background: #F6F8FB; }
    text { font-family: "Segoe UI", Arial, sans-serif; dominant-baseline: alphabetic; }
    .title { font-size: 45px; font-weight: 760; letter-spacing: 0; }
    .subtitle { font-size: 21px; font-weight: 450; }
    .tag { font-size: 15px; font-weight: 650; }
    .section-title { font-size: 24px; font-weight: 760; fill: #172033; }
    .box-title { font-size: 18px; font-weight: 760; }
    .body { font-size: 16px; fill: #172033; }
    .label { font-size: 15px; font-weight: 760; }
    .tiny { font-size: 14px; }
    .table-field { font-size: 15px; fill: #172033; }
    .section { stroke-width: 1.8; }
    .box { stroke-width: 1.5; filter: drop-shadow(0 2px 2px rgba(23,32,51,.08)); }
  </style>
</defs>
<rect x="0" y="0" width="5600" height="130" rx="0" fill="#263C55" />
<text x="58" y="58" class="title" fill="white">Talent Pilot Core ERD - Expanded Flow View</text>
<text x="60" y="96" class="subtitle" fill="#D6E0EA">Expanded table relationships grouped by tenant, identity, workforce, job request, publishing, and candidate pipeline</text>
<rect x="5240" y="34" width="270" height="46" rx="23" fill="#405B78" />
<text x="5375" y="63" class="tag" fill="#EDF4FA" text-anchor="middle">Generated June 5, 2026</text>
<rect x="70" y="190" width="720" height="2840" rx="18" fill="#FFFFFF" stroke="#CAD4DF" class="section" />
<text x="96" y="232" class="section-title">Tenant and identity</text>
<line x1="96" y1="254" x2="764" y2="254" stroke="#CAD4DF" stroke-width="2" />
<rect x="930" y="190" width="760" height="2840" rx="18" fill="#FFFFFF" stroke="#CAD4DF" class="section" />
<text x="956" y="232" class="section-title">Workforce and skills</text>
<line x1="956" y1="254" x2="1664" y2="254" stroke="#CAD4DF" stroke-width="2" />
<rect x="1830" y="190" width="780" height="2840" rx="18" fill="#FFFFFF" stroke="#CAD4DF" class="section" />
<text x="1856" y="232" class="section-title">Job request</text>
<line x1="1856" y1="254" x2="2584" y2="254" stroke="#CAD4DF" stroke-width="2" />
<rect x="2750" y="190" width="690" height="2840" rx="18" fill="#FFFFFF" stroke="#CAD4DF" class="section" />
<text x="2776" y="232" class="section-title">Publishing</text>
<line x1="2776" y1="254" x2="3414" y2="254" stroke="#CAD4DF" stroke-width="2" />
<rect x="3580" y="190" width="1950" height="2840" rx="18" fill="#FFFFFF" stroke="#CAD4DF" class="section" />
<text x="3606" y="232" class="section-title">Candidate pipeline</text>
<line x1="3606" y1="254" x2="5504" y2="254" stroke="#CAD4DF" stroke-width="2" />
<rect x="130" y="340" width="430" height="232" rx="12" fill="#FFFFFF" stroke="#CAD4DF" class="box" />
<rect x="130" y="340" width="430" height="58" rx="12" fill="#557B56" />
<rect x="130" y="378" width="430" height="20" fill="#557B56" />
<text x="148" y="376" class="box-title" fill="white">Tenants</text>
<text x="148" y="426" class="table-field" fill="#172033">PK TenantId</text>
<line x1="146" y1="440" x2="544" y2="440" stroke="#E8EEF5" stroke-width="1" />
<text x="148" y="462" class="table-field" fill="#172033">Slug UK</text>
<line x1="146" y1="476" x2="544" y2="476" stroke="#E8EEF5" stroke-width="1" />
<text x="148" y="498" class="table-field" fill="#172033">DisplayName</text>
<line x1="146" y1="512" x2="544" y2="512" stroke="#E8EEF5" stroke-width="1" />
<text x="148" y="534" class="table-field" fill="#172033">Status</text>
<line x1="146" y1="548" x2="544" y2="548" stroke="#E8EEF5" stroke-width="1" />
<rect x="130" y="780" width="430" height="232" rx="12" fill="#FFFFFF" stroke="#CAD4DF" class="box" />
<rect x="130" y="780" width="430" height="58" rx="12" fill="#246A93" />
<rect x="130" y="818" width="430" height="20" fill="#246A93" />
<text x="148" y="816" class="box-title" fill="white">AppUsers</text>
<text x="148" y="866" class="table-field" fill="#172033">PK UserId</text>
<line x1="146" y1="880" x2="544" y2="880" stroke="#E8EEF5" stroke-width="1" />
<text x="148" y="902" class="table-field" fill="#172033">FK TenantId</text>
<line x1="146" y1="916" x2="544" y2="916" stroke="#E8EEF5" stroke-width="1" />
<text x="148" y="938" class="table-field" fill="#172033">Email UK</text>
<line x1="146" y1="952" x2="544" y2="952" stroke="#E8EEF5" stroke-width="1" />
<text x="148" y="974" class="table-field" fill="#172033">AccountStatus</text>
<line x1="146" y1="988" x2="544" y2="988" stroke="#E8EEF5" stroke-width="1" />
<rect x="130" y="1230" width="430" height="232" rx="12" fill="#FFFFFF" stroke="#CAD4DF" class="box" />
<rect x="130" y="1230" width="430" height="58" rx="12" fill="#1F7A5C" />
<rect x="130" y="1268" width="430" height="20" fill="#1F7A5C" />
<text x="148" y="1266" class="box-title" fill="white">Roles</text>
<text x="148" y="1316" class="table-field" fill="#172033">PK RoleId</text>
<line x1="146" y1="1330" x2="544" y2="1330" stroke="#E8EEF5" stroke-width="1" />
<text x="148" y="1352" class="table-field" fill="#172033">FK TenantId</text>
<line x1="146" y1="1366" x2="544" y2="1366" stroke="#E8EEF5" stroke-width="1" />
<text x="148" y="1388" class="table-field" fill="#172033">Code UK</text>
<line x1="146" y1="1402" x2="544" y2="1402" stroke="#E8EEF5" stroke-width="1" />
<text x="148" y="1424" class="table-field" fill="#172033">Priority</text>
<line x1="146" y1="1438" x2="544" y2="1438" stroke="#E8EEF5" stroke-width="1" />
<rect x="130" y="1680" width="430" height="232" rx="12" fill="#FFFFFF" stroke="#CAD4DF" class="box" />
<rect x="130" y="1680" width="430" height="58" rx="12" fill="#A66A14" />
<rect x="130" y="1718" width="430" height="20" fill="#A66A14" />
<text x="148" y="1716" class="box-title" fill="white">Groups</text>
<text x="148" y="1766" class="table-field" fill="#172033">PK GroupId</text>
<line x1="146" y1="1780" x2="544" y2="1780" stroke="#E8EEF5" stroke-width="1" />
<text x="148" y="1802" class="table-field" fill="#172033">FK TenantId</text>
<line x1="146" y1="1816" x2="544" y2="1816" stroke="#E8EEF5" stroke-width="1" />
<text x="148" y="1838" class="table-field" fill="#172033">Purpose</text>
<line x1="146" y1="1852" x2="544" y2="1852" stroke="#E8EEF5" stroke-width="1" />
<text x="148" y="1874" class="table-field" fill="#172033">Name</text>
<line x1="146" y1="1888" x2="544" y2="1888" stroke="#E8EEF5" stroke-width="1" />
<rect x="990" y="340" width="470" height="232" rx="12" fill="#FFFFFF" stroke="#CAD4DF" class="box" />
<rect x="990" y="340" width="470" height="58" rx="12" fill="#246A93" />
<rect x="990" y="378" width="470" height="20" fill="#246A93" />
<text x="1008" y="376" class="box-title" fill="white">Departments</text>
<text x="1008" y="426" class="table-field" fill="#172033">PK DepartmentId</text>
<line x1="1006" y1="440" x2="1444" y2="440" stroke="#E8EEF5" stroke-width="1" />
<text x="1008" y="462" class="table-field" fill="#172033">FK TenantId</text>
<line x1="1006" y1="476" x2="1444" y2="476" stroke="#E8EEF5" stroke-width="1" />
<text x="1008" y="498" class="table-field" fill="#172033">FK LeadUserId</text>
<line x1="1006" y1="512" x2="1444" y2="512" stroke="#E8EEF5" stroke-width="1" />
<text x="1008" y="534" class="table-field" fill="#172033">Code UK</text>
<line x1="1006" y1="548" x2="1444" y2="548" stroke="#E8EEF5" stroke-width="1" />
<rect x="990" y="770" width="470" height="232" rx="12" fill="#FFFFFF" stroke="#CAD4DF" class="box" />
<rect x="990" y="770" width="470" height="58" rx="12" fill="#246A93" />
<rect x="990" y="808" width="470" height="20" fill="#246A93" />
<text x="1008" y="806" class="box-title" fill="white">Locations</text>
<text x="1008" y="856" class="table-field" fill="#172033">PK LocationId</text>
<line x1="1006" y1="870" x2="1444" y2="870" stroke="#E8EEF5" stroke-width="1" />
<text x="1008" y="892" class="table-field" fill="#172033">FK TenantId</text>
<line x1="1006" y1="906" x2="1444" y2="906" stroke="#E8EEF5" stroke-width="1" />
<text x="1008" y="928" class="table-field" fill="#172033">Code UK</text>
<line x1="1006" y1="942" x2="1444" y2="942" stroke="#E8EEF5" stroke-width="1" />
<text x="1008" y="964" class="table-field" fill="#172033">TimezoneId</text>
<line x1="1006" y1="978" x2="1444" y2="978" stroke="#E8EEF5" stroke-width="1" />
<rect x="990" y="1210" width="470" height="232" rx="12" fill="#FFFFFF" stroke="#CAD4DF" class="box" />
<rect x="990" y="1210" width="470" height="58" rx="12" fill="#246A93" />
<rect x="990" y="1248" width="470" height="20" fill="#246A93" />
<text x="1008" y="1246" class="box-title" fill="white">Skills</text>
<text x="1008" y="1296" class="table-field" fill="#172033">PK SkillId</text>
<line x1="1006" y1="1310" x2="1444" y2="1310" stroke="#E8EEF5" stroke-width="1" />
<text x="1008" y="1332" class="table-field" fill="#172033">FK TenantId</text>
<line x1="1006" y1="1346" x2="1444" y2="1346" stroke="#E8EEF5" stroke-width="1" />
<text x="1008" y="1368" class="table-field" fill="#172033">NormalizedName UK</text>
<line x1="1006" y1="1382" x2="1444" y2="1382" stroke="#E8EEF5" stroke-width="1" />
<text x="1008" y="1404" class="table-field" fill="#172033">Category</text>
<line x1="1006" y1="1418" x2="1444" y2="1418" stroke="#E8EEF5" stroke-width="1" />
<rect x="990" y="1660" width="470" height="268" rx="12" fill="#FFFFFF" stroke="#CAD4DF" class="box" />
<rect x="990" y="1660" width="470" height="58" rx="12" fill="#1F7A5C" />
<rect x="990" y="1698" width="470" height="20" fill="#1F7A5C" />
<text x="1008" y="1696" class="box-title" fill="white">Employees</text>
<text x="1008" y="1746" class="table-field" fill="#172033">PK EmployeeId</text>
<line x1="1006" y1="1760" x2="1444" y2="1760" stroke="#E8EEF5" stroke-width="1" />
<text x="1008" y="1782" class="table-field" fill="#172033">FK AppUserId</text>
<line x1="1006" y1="1796" x2="1444" y2="1796" stroke="#E8EEF5" stroke-width="1" />
<text x="1008" y="1818" class="table-field" fill="#172033">FK DepartmentId</text>
<line x1="1006" y1="1832" x2="1444" y2="1832" stroke="#E8EEF5" stroke-width="1" />
<text x="1008" y="1854" class="table-field" fill="#172033">FK LocationId</text>
<line x1="1006" y1="1868" x2="1444" y2="1868" stroke="#E8EEF5" stroke-width="1" />
<text x="1008" y="1890" class="table-field" fill="#172033">BenchStatus</text>
<line x1="1006" y1="1904" x2="1444" y2="1904" stroke="#E8EEF5" stroke-width="1" />
<rect x="990" y="2200" width="470" height="232" rx="12" fill="#FFFFFF" stroke="#CAD4DF" class="box" />
<rect x="990" y="2200" width="470" height="58" rx="12" fill="#1F7A5C" />
<rect x="990" y="2238" width="470" height="20" fill="#1F7A5C" />
<text x="1008" y="2236" class="box-title" fill="white">EmployeeSkills</text>
<text x="1008" y="2286" class="table-field" fill="#172033">PK/FK EmployeeId</text>
<line x1="1006" y1="2300" x2="1444" y2="2300" stroke="#E8EEF5" stroke-width="1" />
<text x="1008" y="2322" class="table-field" fill="#172033">PK/FK SkillId</text>
<line x1="1006" y1="2336" x2="1444" y2="2336" stroke="#E8EEF5" stroke-width="1" />
<text x="1008" y="2358" class="table-field" fill="#172033">SkillLevel</text>
<line x1="1006" y1="2372" x2="1444" y2="2372" stroke="#E8EEF5" stroke-width="1" />
<text x="1008" y="2394" class="table-field" fill="#172033">YearsExperience</text>
<line x1="1006" y1="2408" x2="1444" y2="2408" stroke="#E8EEF5" stroke-width="1" />
<rect x="1890" y="430" width="520" height="376" rx="12" fill="#FFFFFF" stroke="#CAD4DF" class="box" />
<rect x="1890" y="430" width="520" height="58" rx="12" fill="#246A93" />
<rect x="1890" y="468" width="520" height="20" fill="#246A93" />
<text x="1908" y="466" class="box-title" fill="white">JobRequests</text>
<text x="1908" y="516" class="table-field" fill="#172033">PK JobRequestId</text>
<line x1="1906" y1="530" x2="2394" y2="530" stroke="#E8EEF5" stroke-width="1" />
<text x="1908" y="552" class="table-field" fill="#172033">FK TenantId</text>
<line x1="1906" y1="566" x2="2394" y2="566" stroke="#E8EEF5" stroke-width="1" />
<text x="1908" y="588" class="table-field" fill="#172033">FK DepartmentId</text>
<line x1="1906" y1="602" x2="2394" y2="602" stroke="#E8EEF5" stroke-width="1" />
<text x="1908" y="624" class="table-field" fill="#172033">FK LocationId</text>
<line x1="1906" y1="638" x2="2394" y2="638" stroke="#E8EEF5" stroke-width="1" />
<text x="1908" y="660" class="table-field" fill="#172033">FK CreatedByUserId</text>
<line x1="1906" y1="674" x2="2394" y2="674" stroke="#E8EEF5" stroke-width="1" />
<text x="1908" y="696" class="table-field" fill="#172033">RequestCode UK</text>
<line x1="1906" y1="710" x2="2394" y2="710" stroke="#E8EEF5" stroke-width="1" />
<text x="1908" y="732" class="table-field" fill="#172033">Status</text>
<line x1="1906" y1="746" x2="2394" y2="746" stroke="#E8EEF5" stroke-width="1" />
<text x="1908" y="768" class="table-field" fill="#172033">CurrentStageKey</text>
<line x1="1906" y1="782" x2="2394" y2="782" stroke="#E8EEF5" stroke-width="1" />
<rect x="1890" y="1110" width="520" height="232" rx="12" fill="#FFFFFF" stroke="#CAD4DF" class="box" />
<rect x="1890" y="1110" width="520" height="58" rx="12" fill="#246A93" />
<rect x="1890" y="1148" width="520" height="20" fill="#246A93" />
<text x="1908" y="1146" class="box-title" fill="white">JobRequestSkills</text>
<text x="1908" y="1196" class="table-field" fill="#172033">PK/FK JobRequestId</text>
<line x1="1906" y1="1210" x2="2394" y2="1210" stroke="#E8EEF5" stroke-width="1" />
<text x="1908" y="1232" class="table-field" fill="#172033">PK/FK SkillId</text>
<line x1="1906" y1="1246" x2="2394" y2="1246" stroke="#E8EEF5" stroke-width="1" />
<text x="1908" y="1268" class="table-field" fill="#172033">IsRequired</text>
<line x1="1906" y1="1282" x2="2394" y2="1282" stroke="#E8EEF5" stroke-width="1" />
<text x="1908" y="1304" class="table-field" fill="#172033">Weight</text>
<line x1="1906" y1="1318" x2="2394" y2="1318" stroke="#E8EEF5" stroke-width="1" />
<rect x="1890" y="1570" width="520" height="268" rx="12" fill="#FFFFFF" stroke="#CAD4DF" class="box" />
<rect x="1890" y="1570" width="520" height="58" rx="12" fill="#6751A9" />
<rect x="1890" y="1608" width="520" height="20" fill="#6751A9" />
<text x="1908" y="1606" class="box-title" fill="white">WorkflowAssignments</text>
<text x="1908" y="1656" class="table-field" fill="#172033">PK AssignmentId</text>
<line x1="1906" y1="1670" x2="2394" y2="1670" stroke="#E8EEF5" stroke-width="1" />
<text x="1908" y="1692" class="table-field" fill="#172033">EntityType</text>
<line x1="1906" y1="1706" x2="2394" y2="1706" stroke="#E8EEF5" stroke-width="1" />
<text x="1908" y="1728" class="table-field" fill="#172033">EntityId</text>
<line x1="1906" y1="1742" x2="2394" y2="1742" stroke="#E8EEF5" stroke-width="1" />
<text x="1908" y="1764" class="table-field" fill="#172033">Assigned user/group/role</text>
<line x1="1906" y1="1778" x2="2394" y2="1778" stroke="#E8EEF5" stroke-width="1" />
<text x="1908" y="1800" class="table-field" fill="#172033">AssignmentStatus</text>
<line x1="1906" y1="1814" x2="2394" y2="1814" stroke="#E8EEF5" stroke-width="1" />
<rect x="1890" y="2090" width="520" height="268" rx="12" fill="#FFFFFF" stroke="#CAD4DF" class="box" />
<rect x="1890" y="2090" width="520" height="58" rx="12" fill="#1F7A5C" />
<rect x="1890" y="2128" width="520" height="20" fill="#1F7A5C" />
<text x="1908" y="2126" class="box-title" fill="white">JobRequestEmployeeReferrals</text>
<text x="1908" y="2176" class="table-field" fill="#172033">PK ReferralId</text>
<line x1="1906" y1="2190" x2="2394" y2="2190" stroke="#E8EEF5" stroke-width="1" />
<text x="1908" y="2212" class="table-field" fill="#172033">FK JobRequestId</text>
<line x1="1906" y1="2226" x2="2394" y2="2226" stroke="#E8EEF5" stroke-width="1" />
<text x="1908" y="2248" class="table-field" fill="#172033">FK EmployeeId</text>
<line x1="1906" y1="2262" x2="2394" y2="2262" stroke="#E8EEF5" stroke-width="1" />
<text x="1908" y="2284" class="table-field" fill="#172033">Status</text>
<line x1="1906" y1="2298" x2="2394" y2="2298" stroke="#E8EEF5" stroke-width="1" />
<text x="1908" y="2320" class="table-field" fill="#172033">FitScore</text>
<line x1="1906" y1="2334" x2="2394" y2="2334" stroke="#E8EEF5" stroke-width="1" />
<rect x="2810" y="480" width="490" height="268" rx="12" fill="#FFFFFF" stroke="#CAD4DF" class="box" />
<rect x="2810" y="480" width="490" height="58" rx="12" fill="#6751A9" />
<rect x="2810" y="518" width="490" height="20" fill="#6751A9" />
<text x="2828" y="516" class="box-title" fill="white">JobPosts</text>
<text x="2828" y="566" class="table-field" fill="#172033">PK JobPostId</text>
<line x1="2826" y1="580" x2="3284" y2="580" stroke="#E8EEF5" stroke-width="1" />
<text x="2828" y="602" class="table-field" fill="#172033">FK JobRequestId</text>
<line x1="2826" y1="616" x2="3284" y2="616" stroke="#E8EEF5" stroke-width="1" />
<text x="2828" y="638" class="table-field" fill="#172033">FK RecruiterOwnerUserId</text>
<line x1="2826" y1="652" x2="3284" y2="652" stroke="#E8EEF5" stroke-width="1" />
<text x="2828" y="674" class="table-field" fill="#172033">Status</text>
<line x1="2826" y1="688" x2="3284" y2="688" stroke="#E8EEF5" stroke-width="1" />
<text x="2828" y="710" class="table-field" fill="#172033">PublishedAtUtc</text>
<line x1="2826" y1="724" x2="3284" y2="724" stroke="#E8EEF5" stroke-width="1" />
<rect x="2810" y="1030" width="490" height="232" rx="12" fill="#FFFFFF" stroke="#CAD4DF" class="box" />
<rect x="2810" y="1030" width="490" height="58" rx="12" fill="#6751A9" />
<rect x="2810" y="1068" width="490" height="20" fill="#6751A9" />
<text x="2828" y="1066" class="box-title" fill="white">JobPostSkills</text>
<text x="2828" y="1116" class="table-field" fill="#172033">PK/FK JobPostId</text>
<line x1="2826" y1="1130" x2="3284" y2="1130" stroke="#E8EEF5" stroke-width="1" />
<text x="2828" y="1152" class="table-field" fill="#172033">PK/FK SkillId</text>
<line x1="2826" y1="1166" x2="3284" y2="1166" stroke="#E8EEF5" stroke-width="1" />
<text x="2828" y="1188" class="table-field" fill="#172033">IsRequired</text>
<line x1="2826" y1="1202" x2="3284" y2="1202" stroke="#E8EEF5" stroke-width="1" />
<text x="2828" y="1224" class="table-field" fill="#172033">Weight</text>
<line x1="2826" y1="1238" x2="3284" y2="1238" stroke="#E8EEF5" stroke-width="1" />
<rect x="3650" y="340" width="470" height="232" rx="12" fill="#FFFFFF" stroke="#CAD4DF" class="box" />
<rect x="3650" y="340" width="470" height="58" rx="12" fill="#1F7A5C" />
<rect x="3650" y="378" width="470" height="20" fill="#1F7A5C" />
<text x="3668" y="376" class="box-title" fill="white">Candidates</text>
<text x="3668" y="426" class="table-field" fill="#172033">PK CandidateId</text>
<line x1="3666" y1="440" x2="4104" y2="440" stroke="#E8EEF5" stroke-width="1" />
<text x="3668" y="462" class="table-field" fill="#172033">FK AppUserId</text>
<line x1="3666" y1="476" x2="4104" y2="476" stroke="#E8EEF5" stroke-width="1" />
<text x="3668" y="498" class="table-field" fill="#172033">Email UK</text>
<line x1="3666" y1="512" x2="4104" y2="512" stroke="#E8EEF5" stroke-width="1" />
<text x="3668" y="534" class="table-field" fill="#172033">Status</text>
<line x1="3666" y1="548" x2="4104" y2="548" stroke="#E8EEF5" stroke-width="1" />
<rect x="4910" y="340" width="470" height="232" rx="12" fill="#FFFFFF" stroke="#CAD4DF" class="box" />
<rect x="4910" y="340" width="470" height="58" rx="12" fill="#1F7A5C" />
<rect x="4910" y="378" width="470" height="20" fill="#1F7A5C" />
<text x="4928" y="376" class="box-title" fill="white">CandidateSkills</text>
<text x="4928" y="426" class="table-field" fill="#172033">PK/FK CandidateId</text>
<line x1="4926" y1="440" x2="5364" y2="440" stroke="#E8EEF5" stroke-width="1" />
<text x="4928" y="462" class="table-field" fill="#172033">PK/FK SkillId</text>
<line x1="4926" y1="476" x2="5364" y2="476" stroke="#E8EEF5" stroke-width="1" />
<text x="4928" y="498" class="table-field" fill="#172033">SkillLevel</text>
<line x1="4926" y1="512" x2="5364" y2="512" stroke="#E8EEF5" stroke-width="1" />
<text x="4928" y="534" class="table-field" fill="#172033">YearsExperience</text>
<line x1="4926" y1="548" x2="5364" y2="548" stroke="#E8EEF5" stroke-width="1" />
<rect x="3650" y="960" width="470" height="304" rx="12" fill="#FFFFFF" stroke="#CAD4DF" class="box" />
<rect x="3650" y="960" width="470" height="58" rx="12" fill="#A33E52" />
<rect x="3650" y="998" width="470" height="20" fill="#A33E52" />
<text x="3668" y="996" class="box-title" fill="white">JobApplications</text>
<text x="3668" y="1046" class="table-field" fill="#172033">PK ApplicationId</text>
<line x1="3666" y1="1060" x2="4104" y2="1060" stroke="#E8EEF5" stroke-width="1" />
<text x="3668" y="1082" class="table-field" fill="#172033">FK JobRequestId</text>
<line x1="3666" y1="1096" x2="4104" y2="1096" stroke="#E8EEF5" stroke-width="1" />
<text x="3668" y="1118" class="table-field" fill="#172033">FK JobPostId</text>
<line x1="3666" y1="1132" x2="4104" y2="1132" stroke="#E8EEF5" stroke-width="1" />
<text x="3668" y="1154" class="table-field" fill="#172033">FK CandidateId</text>
<line x1="3666" y1="1168" x2="4104" y2="1168" stroke="#E8EEF5" stroke-width="1" />
<text x="3668" y="1190" class="table-field" fill="#172033">CurrentStatus</text>
<line x1="3666" y1="1204" x2="4104" y2="1204" stroke="#E8EEF5" stroke-width="1" />
<text x="3668" y="1226" class="table-field" fill="#172033">ApplicationVersion</text>
<line x1="3666" y1="1240" x2="4104" y2="1240" stroke="#E8EEF5" stroke-width="1" />
<rect x="4910" y="1040" width="470" height="232" rx="12" fill="#FFFFFF" stroke="#CAD4DF" class="box" />
<rect x="4910" y="1040" width="470" height="58" rx="12" fill="#A33E52" />
<rect x="4910" y="1078" width="470" height="20" fill="#A33E52" />
<text x="4928" y="1076" class="box-title" fill="white">JobApplicationStatusHistory</text>
<text x="4928" y="1126" class="table-field" fill="#172033">PK HistoryId</text>
<line x1="4926" y1="1140" x2="5364" y2="1140" stroke="#E8EEF5" stroke-width="1" />
<text x="4928" y="1162" class="table-field" fill="#172033">FK JobApplicationId</text>
<line x1="4926" y1="1176" x2="5364" y2="1176" stroke="#E8EEF5" stroke-width="1" />
<text x="4928" y="1198" class="table-field" fill="#172033">FromStatus</text>
<line x1="4926" y1="1212" x2="5364" y2="1212" stroke="#E8EEF5" stroke-width="1" />
<text x="4928" y="1234" class="table-field" fill="#172033">ToStatus</text>
<line x1="4926" y1="1248" x2="5364" y2="1248" stroke="#E8EEF5" stroke-width="1" />
<rect x="3650" y="1580" width="470" height="268" rx="12" fill="#FFFFFF" stroke="#CAD4DF" class="box" />
<rect x="3650" y="1580" width="470" height="58" rx="12" fill="#A66A14" />
<rect x="3650" y="1618" width="470" height="20" fill="#A66A14" />
<text x="3668" y="1616" class="box-title" fill="white">Interviews</text>
<text x="3668" y="1666" class="table-field" fill="#172033">PK InterviewId</text>
<line x1="3666" y1="1680" x2="4104" y2="1680" stroke="#E8EEF5" stroke-width="1" />
<text x="3668" y="1702" class="table-field" fill="#172033">FK JobApplicationId</text>
<line x1="3666" y1="1716" x2="4104" y2="1716" stroke="#E8EEF5" stroke-width="1" />
<text x="3668" y="1738" class="table-field" fill="#172033">FK InterviewerUserId</text>
<line x1="3666" y1="1752" x2="4104" y2="1752" stroke="#E8EEF5" stroke-width="1" />
<text x="3668" y="1774" class="table-field" fill="#172033">StartsAtUtc</text>
<line x1="3666" y1="1788" x2="4104" y2="1788" stroke="#E8EEF5" stroke-width="1" />
<text x="3668" y="1810" class="table-field" fill="#172033">Status</text>
<line x1="3666" y1="1824" x2="4104" y2="1824" stroke="#E8EEF5" stroke-width="1" />
<rect x="4910" y="1660" width="470" height="232" rx="12" fill="#FFFFFF" stroke="#CAD4DF" class="box" />
<rect x="4910" y="1660" width="470" height="58" rx="12" fill="#A66A14" />
<rect x="4910" y="1698" width="470" height="20" fill="#A66A14" />
<text x="4928" y="1696" class="box-title" fill="white">InterviewFeedback</text>
<text x="4928" y="1746" class="table-field" fill="#172033">PK FeedbackId</text>
<line x1="4926" y1="1760" x2="5364" y2="1760" stroke="#E8EEF5" stroke-width="1" />
<text x="4928" y="1782" class="table-field" fill="#172033">FK InterviewId</text>
<line x1="4926" y1="1796" x2="5364" y2="1796" stroke="#E8EEF5" stroke-width="1" />
<text x="4928" y="1818" class="table-field" fill="#172033">FK SubmittedByUserId</text>
<line x1="4926" y1="1832" x2="5364" y2="1832" stroke="#E8EEF5" stroke-width="1" />
<text x="4928" y="1854" class="table-field" fill="#172033">Recommendation</text>
<line x1="4926" y1="1868" x2="5364" y2="1868" stroke="#E8EEF5" stroke-width="1" />
<rect x="3650" y="2260" width="470" height="268" rx="12" fill="#FFFFFF" stroke="#CAD4DF" class="box" />
<rect x="3650" y="2260" width="470" height="58" rx="12" fill="#1F7A5C" />
<rect x="3650" y="2298" width="470" height="20" fill="#1F7A5C" />
<text x="3668" y="2296" class="box-title" fill="white">OfferLetters</text>
<text x="3668" y="2346" class="table-field" fill="#172033">PK OfferLetterId</text>
<line x1="3666" y1="2360" x2="4104" y2="2360" stroke="#E8EEF5" stroke-width="1" />
<text x="3668" y="2382" class="table-field" fill="#172033">FK JobApplicationId</text>
<line x1="3666" y1="2396" x2="4104" y2="2396" stroke="#E8EEF5" stroke-width="1" />
<text x="3668" y="2418" class="table-field" fill="#172033">FK JobRequestId</text>
<line x1="3666" y1="2432" x2="4104" y2="2432" stroke="#E8EEF5" stroke-width="1" />
<text x="3668" y="2454" class="table-field" fill="#172033">FK CandidateId</text>
<line x1="3666" y1="2468" x2="4104" y2="2468" stroke="#E8EEF5" stroke-width="1" />
<text x="3668" y="2490" class="table-field" fill="#172033">Status</text>
<line x1="3666" y1="2504" x2="4104" y2="2504" stroke="#E8EEF5" stroke-width="1" />
<rect x="4910" y="2260" width="470" height="268" rx="12" fill="#FFFFFF" stroke="#CAD4DF" class="box" />
<rect x="4910" y="2260" width="470" height="58" rx="12" fill="#1F7A5C" />
<rect x="4910" y="2298" width="470" height="20" fill="#1F7A5C" />
<text x="4928" y="2296" class="box-title" fill="white">JobRequestFulfillments</text>
<text x="4928" y="2346" class="table-field" fill="#172033">PK FulfillmentId</text>
<line x1="4926" y1="2360" x2="5364" y2="2360" stroke="#E8EEF5" stroke-width="1" />
<text x="4928" y="2382" class="table-field" fill="#172033">FK JobRequestId</text>
<line x1="4926" y1="2396" x2="5364" y2="2396" stroke="#E8EEF5" stroke-width="1" />
<text x="4928" y="2418" class="table-field" fill="#172033">FK JobApplicationId</text>
<line x1="4926" y1="2432" x2="5364" y2="2432" stroke="#E8EEF5" stroke-width="1" />
<text x="4928" y="2454" class="table-field" fill="#172033">FK EmployeeId/CandidateId</text>
<line x1="4926" y1="2468" x2="5364" y2="2468" stroke="#E8EEF5" stroke-width="1" />
<text x="4928" y="2490" class="table-field" fill="#172033">FulfillmentType</text>
<line x1="4926" y1="2504" x2="5364" y2="2504" stroke="#E8EEF5" stroke-width="1" />
<path d="M345,572 L345,780" stroke="#536273" stroke-width="2.2" fill="none" marker-end="url(#arrow)" opacity="0.78" />
<rect x="302" y="653" width="86" height="34" rx="8" fill="white" stroke="#D9E0E8" />
<text x="345" y="676" class="label" fill="#172033" text-anchor="middle">1:N</text>
<path d="M560,456 L990,456" stroke="#536273" stroke-width="2.2" fill="none" marker-end="url(#arrow)" opacity="0.78" />
<rect x="732" y="433" width="86" height="34" rx="8" fill="white" stroke="#D9E0E8" />
<text x="775" y="456" class="label" fill="#172033" text-anchor="middle">1:N</text>
<path d="M560,456 L775,456 L775,886 L990,886" stroke="#536273" stroke-width="2.2" fill="none" marker-end="url(#arrow)" opacity="0.78" />
<rect x="732" y="648" width="86" height="34" rx="8" fill="white" stroke="#D9E0E8" />
<text x="775" y="671" class="label" fill="#172033" text-anchor="middle">1:N</text>
<path d="M560,456 L775,456 L775,1326 L990,1326" stroke="#536273" stroke-width="2.2" fill="none" marker-end="url(#arrow)" opacity="0.78" />
<rect x="732" y="868" width="86" height="34" rx="8" fill="white" stroke="#D9E0E8" />
<text x="775" y="891" class="label" fill="#172033" text-anchor="middle">1:N</text>
<path d="M345,1012 L345,1230" stroke="#95A6BA" stroke-width="2.2" fill="none" marker-end="url(#arrow)" stroke-dasharray="14 12" opacity="0.78" />
<rect x="273" y="1098" width="145" height="34" rx="8" fill="white" stroke="#D9E0E8" />
<text x="345" y="1121" class="label" fill="#172033" text-anchor="middle">via UserRoles</text>
<path d="M345,1012 L345,1680" stroke="#95A6BA" stroke-width="2.2" fill="none" marker-end="url(#arrow)" stroke-dasharray="14 12" opacity="0.78" />
<rect x="259" y="1323" width="172" height="34" rx="8" fill="white" stroke="#D9E0E8" />
<text x="345" y="1346" class="label" fill="#172033" text-anchor="middle">via GroupMembers</text>
<path d="M560,896 L845,896 L845,1794 L990,1794" stroke="#95A6BA" stroke-width="2.2" fill="none" marker-end="url(#arrow)" stroke-dasharray="14 12" opacity="0.78" />
<rect x="768" y="1322" width="154" height="34" rx="8" fill="white" stroke="#D9E0E8" />
<text x="845" y="1345" class="label" fill="#172033" text-anchor="middle">employee login</text>
<path d="M560,896 L820,896 L820,285 L3580,285 L3580,456 L3650,456" stroke="#95A6BA" stroke-width="2.2" fill="none" marker-end="url(#arrow)" stroke-dasharray="14 12" opacity="0.78" />
<rect x="2179" y="262" width="163" height="34" rx="8" fill="white" stroke="#D9E0E8" />
<text x="2260" y="285" class="label" fill="#172033" text-anchor="middle">candidate login</text>
<path d="M1460,456 L1675,456 L1675,618 L1890,618" stroke="#536273" stroke-width="2.2" fill="none" marker-end="url(#arrow)" opacity="0.78" />
<rect x="1632" y="514" width="86" height="34" rx="8" fill="white" stroke="#D9E0E8" />
<text x="1675" y="537" class="label" fill="#172033" text-anchor="middle">1:N</text>
<path d="M1460,886 L1675,886 L1675,618 L1890,618" stroke="#536273" stroke-width="2.2" fill="none" marker-end="url(#arrow)" opacity="0.78" />
<rect x="1632" y="729" width="86" height="34" rx="8" fill="white" stroke="#D9E0E8" />
<text x="1675" y="752" class="label" fill="#172033" text-anchor="middle">1:N</text>
<path d="M1460,1326 L1675,1326 L1675,1226 L1890,1226" stroke="#536273" stroke-width="2.2" fill="none" marker-end="url(#arrow)" opacity="0.78" />
<rect x="1632" y="1253" width="86" height="34" rx="8" fill="white" stroke="#D9E0E8" />
<text x="1675" y="1276" class="label" fill="#172033" text-anchor="middle">1:N</text>
<path d="M1225,1442 L1225,2200" stroke="#536273" stroke-width="2.2" fill="none" marker-end="url(#arrow)" opacity="0.78" />
<rect x="1182" y="1798" width="86" height="34" rx="8" fill="white" stroke="#D9E0E8" />
<text x="1225" y="1821" class="label" fill="#172033" text-anchor="middle">1:N</text>
<path d="M1225,1928 L1225,2200" stroke="#536273" stroke-width="2.2" fill="none" marker-end="url(#arrow)" opacity="0.78" />
<rect x="1182" y="2041" width="86" height="34" rx="8" fill="white" stroke="#D9E0E8" />
<text x="1225" y="2064" class="label" fill="#172033" text-anchor="middle">1:N</text>
<path d="M2150,806 L2150,1110" stroke="#536273" stroke-width="2.2" fill="none" marker-end="url(#arrow)" opacity="0.78" />
<rect x="2107" y="935" width="86" height="34" rx="8" fill="white" stroke="#D9E0E8" />
<text x="2150" y="958" class="label" fill="#172033" text-anchor="middle">1:N</text>
<path d="M2150,806 L2150,1570" stroke="#95A6BA" stroke-width="2.2" fill="none" marker-end="url(#arrow)" stroke-dasharray="14 12" opacity="0.78" />
<rect x="2091" y="1165" width="118" height="34" rx="8" fill="white" stroke="#D9E0E8" />
<text x="2150" y="1188" class="label" fill="#172033" text-anchor="middle">tracked by</text>
<path d="M2150,806 L2150,2090" stroke="#536273" stroke-width="2.2" fill="none" marker-end="url(#arrow)" opacity="0.78" />
<rect x="2107" y="1425" width="86" height="34" rx="8" fill="white" stroke="#D9E0E8" />
<text x="2150" y="1448" class="label" fill="#172033" text-anchor="middle">1:N</text>
<path d="M1460,1794 L1675,1794 L1675,2224 L1890,2224" stroke="#536273" stroke-width="2.2" fill="none" marker-end="url(#arrow)" opacity="0.78" />
<rect x="1632" y="1986" width="86" height="34" rx="8" fill="white" stroke="#D9E0E8" />
<text x="1675" y="2009" class="label" fill="#172033" text-anchor="middle">1:N</text>
<path d="M2410,618 L2810,614" stroke="#536273" stroke-width="2.2" fill="none" marker-end="url(#arrow)" opacity="0.78" />
<rect x="2567" y="593" width="86" height="34" rx="8" fill="white" stroke="#D9E0E8" />
<text x="2610" y="616" class="label" fill="#172033" text-anchor="middle">1:0..N</text>
<path d="M3055,748 L3055,1030" stroke="#536273" stroke-width="2.2" fill="none" marker-end="url(#arrow)" opacity="0.78" />
<rect x="3012" y="866" width="86" height="34" rx="8" fill="white" stroke="#D9E0E8" />
<text x="3055" y="889" class="label" fill="#172033" text-anchor="middle">1:N</text>
<path d="M1460,1326 L1755,1326 L1755,2660 L2685,2660 L2685,1146 L2810,1146" stroke="#536273" stroke-width="2.2" fill="none" marker-end="url(#arrow)" opacity="0.78" />
<rect x="2177" y="2637" width="86" height="34" rx="8" fill="white" stroke="#D9E0E8" />
<text x="2220" y="2660" class="label" fill="#172033" text-anchor="middle">1:N</text>
<path d="M4120,456 L4910,456" stroke="#536273" stroke-width="2.2" fill="none" marker-end="url(#arrow)" opacity="0.78" />
<rect x="4472" y="433" width="86" height="34" rx="8" fill="white" stroke="#D9E0E8" />
<text x="4515" y="456" class="label" fill="#172033" text-anchor="middle">1:N</text>
<path d="M1460,1326 L1755,1326 L1755,2780 L4865,2780 L4865,456 L4910,456" stroke="#536273" stroke-width="2.2" fill="none" marker-end="url(#arrow)" opacity="0.78" />
<rect x="3257" y="2757" width="86" height="34" rx="8" fill="white" stroke="#D9E0E8" />
<text x="3300" y="2780" class="label" fill="#172033" text-anchor="middle">1:N</text>
<path d="M2410,618 L2685,618 L2685,900 L3520,900 L3520,1112 L3650,1112" stroke="#536273" stroke-width="2.2" fill="none" marker-end="url(#arrow)" opacity="0.78" />
<rect x="3097" y="877" width="86" height="34" rx="8" fill="white" stroke="#D9E0E8" />
<text x="3140" y="900" class="label" fill="#172033" text-anchor="middle">1:N</text>
<path d="M3300,614 L3505,614 L3505,1112 L3650,1112" stroke="#536273" stroke-width="2.2" fill="none" marker-end="url(#arrow)" opacity="0.78" />
<rect x="3462" y="842" width="86" height="34" rx="8" fill="white" stroke="#D9E0E8" />
<text x="3505" y="865" class="label" fill="#172033" text-anchor="middle">1:N</text>
<path d="M3885,572 L3885,960" stroke="#536273" stroke-width="2.2" fill="none" marker-end="url(#arrow)" opacity="0.78" />
<rect x="3842" y="743" width="86" height="34" rx="8" fill="white" stroke="#D9E0E8" />
<text x="3885" y="766" class="label" fill="#172033" text-anchor="middle">1:N</text>
<path d="M4120,1112 L4910,1156" stroke="#536273" stroke-width="2.2" fill="none" marker-end="url(#arrow)" opacity="0.78" />
<rect x="4472" y="1111" width="86" height="34" rx="8" fill="white" stroke="#D9E0E8" />
<text x="4515" y="1134" class="label" fill="#172033" text-anchor="middle">1:N</text>
<path d="M3885,1264 L3885,1580" stroke="#536273" stroke-width="2.2" fill="none" marker-end="url(#arrow)" opacity="0.78" />
<rect x="3842" y="1399" width="86" height="34" rx="8" fill="white" stroke="#D9E0E8" />
<text x="3885" y="1422" class="label" fill="#172033" text-anchor="middle">1:N</text>
<path d="M4120,1714 L4910,1776" stroke="#95A6BA" stroke-width="2.2" fill="none" marker-end="url(#arrow)" stroke-dasharray="14 12" opacity="0.78" />
<rect x="4472" y="1722" width="86" height="34" rx="8" fill="white" stroke="#D9E0E8" />
<text x="4515" y="1745" class="label" fill="#172033" text-anchor="middle">1:0..1</text>
<path d="M3885,1264 L3885,2260" stroke="#536273" stroke-width="2.2" fill="none" marker-end="url(#arrow)" opacity="0.78" />
<rect x="3842" y="1739" width="86" height="34" rx="8" fill="white" stroke="#D9E0E8" />
<text x="3885" y="1762" class="label" fill="#172033" text-anchor="middle">1:N</text>
<path d="M4120,1112 L4545,1112 L4545,2394 L4910,2394" stroke="#95A6BA" stroke-width="2.2" fill="none" marker-end="url(#arrow)" stroke-dasharray="14 12" opacity="0.78" />
<rect x="4495" y="1737" width="100" height="34" rx="8" fill="white" stroke="#D9E0E8" />
<text x="4545" y="1760" class="label" fill="#172033" text-anchor="middle">external</text>
<path d="M2410,2224 L2685,2224 L2685,2900 L4865,2900 L4865,2394 L4910,2394" stroke="#95A6BA" stroke-width="2.2" fill="none" marker-end="url(#arrow)" stroke-dasharray="14 12" opacity="0.78" />
<rect x="3690" y="2877" width="100" height="34" rx="8" fill="white" stroke="#D9E0E8" />
<text x="3740" y="2900" class="label" fill="#172033" text-anchor="middle">internal</text>
<rect x="130" y="3190" width="5210" height="170" rx="14" fill="#FFFFFF" stroke="#CAD4DF" class="box" />
<rect x="130" y="3190" width="5210" height="60" rx="14" fill="#263C55" />
<rect x="130" y="3228" width="5210" height="22" fill="#263C55" />
<text x="152" y="3227" class="box-title" fill="white">ERD reading guide</text>
<text x="152" y="3278" class="body" fill="#172033">TenantId scopes tenant-owned runtime/configuration tables.</text>
<text x="152" y="3308" class="body" fill="#172033">Solid lines are core parent-child dependencies; dotted lines are optional, junction, or polymorphic-style relationships.</text>
<text x="152" y="3338" class="body" fill="#172033">WorkflowAssignments uses EntityType + EntityId, so the logical link is shown even where SQL cannot enforce a normal FK.</text>
<line x1="55" y1="3530" x2="5545" y2="3530" stroke="#CAD4DF" stroke-width="2" />
<text x="58" y="3562" class="tiny" fill="#536273">Expanded ERD SVG. Full executable table definitions remain in scripts/schema and scripts/migrations.</text>
</svg>
